# File created by Blade
# Date/Time:  Tue Jan 27 19:00:36 2015
# Frame Rate: 120.000 fps
#------------------------------------------------------
:FULLY-SPECIFIED
:DEGREES
3597
root -3.316827 31.609296 -3.443887 9.966096 -50.233326 -13.494997
Spine 3.671482 9.058539 -1.175874
Head 24.338013 32.558155 9.936822
LeftShoulder -21.745900 20.661380 11.870699
LeftArm -3.215086 -49.414110 -75.011594
LeftForeArm -3.724208 -0.000000 109.966422
LeftHand -16.369220 -0.000000 33.830487
LeftHandThumb1 -26.253704 0.000000 33.147579
RightShoulder -6.212924 3.859294 -4.466098
RightArm 17.086375 -41.852568 76.918227
RightForeArm -26.651854 0.000000 27.752007
RightHand -13.649550 -0.000000 8.941084
RightHandThumb1 -24.326973 -0.000000 -32.862282
LeftUpLeg -2.383377 16.632890 -3.907151
LeftLeg 15.900263 -0.000000 -0.000000
LeftFoot -33.105467 34.308005 -17.806493
LeftToeBase 12.406018 -0.000000 -0.000000
RightUpLeg -10.057033 -45.449464 -12.410444
RightLeg 99.957914 -0.000000 -0.000000
RightFoot -23.230097 -25.532107 10.965715
RightToeBase -3.236213 -0.000000 0.000000
3598
root -3.318580 31.607250 -3.433602 9.987189 -50.234293 -13.504084
Spine 3.609274 9.039582 -1.206307
Head 24.356710 32.533770 10.022940
LeftShoulder -21.783376 20.734564 11.874210
LeftArm -3.202509 -49.361779 -75.053584
LeftForeArm -3.815160 0.000000 110.092785
LeftHand -16.309401 -0.000000 33.725826
LeftHandThumb1 -26.253704 0.000000 33.147579
RightShoulder -6.208159 3.855680 -4.464208
RightArm 17.054824 -41.838851 76.949133
RightForeArm -26.677956 -0.000000 27.647336
RightHand -13.608333 0.000000 8.949282
RightHandThumb1 -24.326973 -0.000000 -32.862282
LeftUpLeg -2.329151 16.559439 -3.919079
LeftLeg 15.796193 -0.000000 -0.000000
LeftFoot -33.093889 34.442187 -17.792084
LeftToeBase 12.349901 -0.000000 -0.000000
RightUpLeg -9.851734 -45.137584 -12.684434
RightLeg 97.826733 -0.000000 -0.000000
RightFoot -23.572512 -25.803468 11.333856
RightToeBase -2.711320 -0.000000 0.000000
3599
root -3.319597 31.606469 -3.422719 10.027504 -50.271420 -13.547504
Spine 3.561455 9.064917 -1.215178
Head 24.383158 32.535845 10.128493
LeftShoulder -21.814195 20.751466 11.879405
LeftArm -3.264878 -49.314666 -75.038168
LeftForeArm -3.895482 -0.000000 110.235094
LeftHand -16.271534 -0.000000 33.558041
LeftHandThumb1 -26.253704 0.000000 33.147579
RightShoulder -6.204795 3.852848 -4.451759
RightArm 17.026553 -41.809496 76.958938
RightForeArm -26.723316 0.000000 27.553580
RightHand -13.558429 -0.000000 9.006808
RightHandThumb1 -24.326973 -0.000000 -32.862282
LeftUpLeg -2.244982 16.566950 -3.920816
LeftLeg 15.626209 -0.000000 -0.000000
LeftFoot -33.031640 34.545614 -17.689916
LeftToeBase 12.356694 -0.000000 -0.000000
RightUpLeg -9.641356 -44.787603 -12.927309
RightLeg 95.557414 -0.000000 -0.000000
RightFoot -23.861233 -26.222268 11.662330
RightToeBase -2.109413 -0.000000 0.000000
3600
root -3.319061 31.606118 -3.413550 10.093506 -50.322169 -13.611871
Spine 3.512383 9.112167 -1.210835
Head 24.410955 32.565656 10.249848
LeftShoulder -21.859565 20.777306 11.866897
LeftArm -3.338851 -49.379135 -75.030912
LeftForeArm -4.601904 -0.000000 110.371329
LeftHand -15.749535 -0.000000 32.805801
LeftHandThumb1 -26.253704 0.000000 33.147579
RightShoulder -6.197929 3.888788 -4.443704
RightArm 16.940879 -41.782054 76.993212
RightForeArm -26.768325 -0.000000 27.491161
RightHand -13.573219 -0.000000 9.051170
RightHandThumb1 -24.326973 -0.000000 -32.862282
LeftUpLeg -2.193528 16.555371 -3.917446
LeftLeg 15.492484 -0.000000 -0.000000
LeftFoot -32.980717 34.691198 -17.581483
LeftToeBase 12.381722 -0.000000 -0.000000
RightUpLeg -9.429548 -44.427113 -13.145366
RightLeg 93.157820 -0.000000 -0.000000
RightFoot -24.165110 -26.828415 12.082529
RightToeBase -1.960269 -0.000000 0.000000
3601
root -3.320846 31.607098 -3.405093 10.171350 -50.354686 -13.707816
Spine 3.470468 9.144930 -1.183902
Head 24.418053 32.559264 10.323644
LeftShoulder -21.879015 20.805596 11.866048
LeftArm -3.398704 -49.336906 -75.034246
LeftForeArm -4.673444 -0.000000 110.528632
LeftHand -15.693599 0.000000 32.662783
LeftHandThumb1 -26.253704 0.000000 33.147579
RightShoulder -6.191257 3.849735 -4.407396
RightArm 17.001372 -41.851096 76.866909
RightForeArm -26.673773 -0.000000 27.439409
RightHand -13.613839 -0.000000 8.982271
RightHandThumb1 -24.326973 -0.000000 -32.862282
LeftUpLeg -2.124380 16.520546 -3.880468
LeftLeg 15.359528 -0.000000 -0.000000
LeftFoot -32.945050 34.803097 -17.506112
LeftToeBase 12.372069 -0.000000 -0.000000
RightUpLeg -9.152583 -44.092168 -13.363802
RightLeg 90.645094 -0.000000 -0.000000
RightFoot -24.519540 -27.476808 12.723345
RightToeBase -1.818072 -0.000000 0.000000
3602
root -3.320169 31.606362 -3.393411 10.230598 -50.406643 -13.762013
Spine 3.408385 9.175986 -1.193941
Head 24.416828 32.568685 10.406501
LeftShoulder -21.888743 20.862640 11.870369
LeftArm -3.489561 -49.312804 -75.031512
LeftForeArm -4.685545 -0.000000 110.717862
LeftHand -15.718496 -0.000000 32.587664
LeftHandThumb1 -26.253704 0.000000 33.147579
RightShoulder -6.174832 3.843686 -4.382932
RightArm 17.010593 -41.887640 76.802482
RightForeArm -26.635233 -0.000000 27.363878
RightHand -13.618519 -0.000000 9.001286
RightHandThumb1 -24.326973 -0.000000 -32.862282
LeftUpLeg -2.063721 16.486152 -3.893748
LeftLeg 15.199306 -0.000000 -0.000000
LeftFoot -32.933239 34.951168 -17.489648
LeftToeBase 12.389247 -0.000000 -0.000000
RightUpLeg -8.868970 -43.800533 -13.626249
RightLeg 88.024479 -0.000000 -0.000000
RightFoot -24.732667 -28.329680 13.151377
RightToeBase -2.221354 -0.000000 0.000000
3603
root -3.320945 31.604871 -3.379742 10.278310 -50.464059 -13.804616
Spine 3.346525 9.236345 -1.205295
Head 24.416807 32.564031 10.492385
LeftShoulder -21.912423 20.879665 11.899539
LeftArm -3.583225 -49.235099 -75.031201
LeftForeArm -4.701696 -0.000000 110.881853
LeftHand -15.756917 -0.000000 32.536702
LeftHandThumb1 -26.253704 0.000000 33.147579
RightShoulder -6.181332 3.845115 -4.373762
RightArm 16.987873 -41.911858 76.770327
RightForeArm -26.631340 -0.000000 27.300173
RightHand -13.616920 -0.000000 9.033791
RightHandThumb1 -24.326973 -0.000000 -32.862282
LeftUpLeg -1.991396 16.389632 -3.907106
LeftLeg 15.056647 -0.000000 -0.000000
LeftFoot -32.876018 35.127358 -17.380366
LeftToeBase 12.406854 -0.000000 -0.000000
RightUpLeg -8.557845 -43.490912 -13.897175
RightLeg 85.335248 -0.000000 -0.000000
RightFoot -24.980198 -29.109363 13.783083
RightToeBase -1.897886 -0.000000 0.000000
3604
root -3.321675 31.604115 -3.364262 10.341730 -50.551015 -13.878365
Spine 3.293238 9.301533 -1.192397
Head 24.432148 32.597104 10.570042
LeftShoulder -21.953075 20.910289 11.884627
LeftArm -3.698068 -49.175642 -74.997522
LeftForeArm -4.730780 -0.000000 111.068186
LeftHand -15.744765 -0.000000 32.543419
LeftHandThumb1 -26.253704 0.000000 33.147579
RightShoulder -6.176612 3.817239 -4.352406
RightArm 17.024369 -41.957415 76.675850
RightForeArm -26.612753 0.000000 27.247168
RightHand -13.645363 -0.000000 9.024999
RightHandThumb1 -24.326973 -0.000000 -32.862282
LeftUpLeg -1.907873 16.334724 -3.912822
LeftLeg 14.898332 -0.000000 -0.000000
LeftFoot -32.864229 35.331961 -17.341958
LeftToeBase 12.443522 -0.000000 -0.000000
RightUpLeg -8.213252 -43.122870 -14.162276
RightLeg 82.564143 -0.000000 -0.000000
RightFoot -25.055573 -29.818013 14.122600
RightToeBase -1.999092 -0.000000 0.000000
3605
root -3.319693 31.602503 -3.352703 10.420061 -50.648410 -13.940331
Spine 3.227454 9.373423 -1.203575
Head 24.412270 32.629246 10.642313
LeftShoulder -21.985841 20.946586 11.888762
LeftArm -3.812660 -49.141880 -74.984376
LeftForeArm -4.773206 -0.000000 111.247965
LeftHand -15.752652 -0.000000 32.503878
LeftHandThumb1 -26.253704 0.000000 33.147579
RightShoulder -6.154242 3.853746 -4.359520
RightArm 16.954901 -41.906848 76.726238
RightForeArm -26.695798 -0.000000 27.167032
RightHand -13.627334 -0.000000 9.133371
RightHandThumb1 -24.326973 -0.000000 -32.862282
LeftUpLeg -1.878617 16.271286 -3.936893
LeftLeg 14.785741 -0.000000 -0.000000
LeftFoot -32.874383 35.531292 -17.343096
LeftToeBase 12.420142 -0.000000 -0.000000
RightUpLeg -7.906493 -42.751245 -14.403222
RightLeg 79.771053 -0.000000 -0.000000
RightFoot -25.709932 -29.781571 15.215176
RightToeBase -0.096766 -0.000000 0.000000
3606
root -3.318357 31.602252 -3.342729 10.504246 -50.757933 -14.015997
Spine 3.165991 9.457097 -1.221272
Head 24.398687 32.671776 10.754521
LeftShoulder -22.022160 20.998113 11.891684
LeftArm -3.875483 -49.115381 -75.033800
LeftForeArm -4.802735 -0.000000 111.441468
LeftHand -15.720711 -0.000000 32.561518
LeftHandThumb1 -26.253704 0.000000 33.147579
RightShoulder -6.143681 3.892367 -4.335932
RightArm 16.936084 -41.941751 76.695777
RightForeArm -26.705726 -0.000000 27.088726
RightHand -13.590909 -0.000000 9.176724
RightHandThumb1 -24.326973 -0.000000 -32.862282
LeftUpLeg -1.847517 16.230593 -3.946068
LeftLeg 14.684148 -0.000000 -0.000000
LeftFoot -32.877747 35.699926 -17.333263
LeftToeBase 12.464282 -0.000000 -0.000000
RightUpLeg -7.544924 -42.354782 -14.642054
RightLeg 76.858881 -0.000000 -0.000000
RightFoot -25.345233 -30.222984 15.005209
RightToeBase -0.261971 -0.000000 0.000000
3607
root -3.315389 31.601038 -3.332797 10.592707 -50.881085 -14.073837
Spine 3.087028 9.560585 -1.258414
Head 24.386506 32.722001 10.877900
LeftShoulder -22.032814 21.051965 11.891501
LeftArm -3.975946 -49.130759 -75.039874
LeftForeArm -4.853468 -0.000000 111.643978
LeftHand -15.709265 0.000000 32.524614
LeftHandThumb1 -26.253704 0.000000 33.147579
RightShoulder -6.146199 3.909088 -4.322219
RightArm 16.960189 -42.015728 76.630515
RightForeArm -26.678613 -0.000000 27.022094
RightHand -13.581717 0.000000 9.161465
RightHandThumb1 -24.326973 -0.000000 -32.862282
LeftUpLeg -1.849664 16.170557 -3.978373
LeftLeg 14.613126 -0.000000 -0.000000
LeftFoot -32.920356 35.860088 -17.393611
LeftToeBase 12.477100 -0.000000 -0.000000
RightUpLeg -7.186106 -41.950783 -14.865412
RightLeg 73.849553 -0.000000 -0.000000
RightFoot -24.021522 -30.962732 13.727893
RightToeBase -2.470054 -0.000000 0.000000
3608
root -3.312323 31.600642 -3.325180 10.700949 -50.997482 -14.170641
Spine 3.030087 9.646995 -1.263248
Head 24.390297 32.811921 11.013288
LeftShoulder -22.067112 21.066714 11.887681
LeftArm -4.101713 -49.138140 -75.018046
LeftForeArm -4.884388 0.000000 111.831045
LeftHand -15.737125 -0.000000 32.505935
LeftHandThumb1 -26.253704 0.000000 33.147579
RightShoulder -6.134363 3.888234 -4.301151
RightArm 17.054043 -42.054071 76.527074
RightForeArm -26.682721 -0.000000 26.945651
RightHand -13.574145 0.000000 9.210649
RightHandThumb1 -24.326973 -0.000000 -32.862282
LeftUpLeg -1.860235 16.146105 -3.977799
LeftLeg 14.572957 -0.000000 -0.000000
LeftFoot -32.944956 35.999960 -17.422997
LeftToeBase 12.398976 -0.000000 -0.000000
RightUpLeg -6.809639 -41.551861 -15.062676
RightLeg 70.870904 -0.000000 -0.000000
RightFoot -24.800430 -30.184560 14.995574
RightToeBase 0.355110 -0.000000 -0.000000
